<svg width="18" height="14" viewBox="0 0 18 14" fill="none" xmlns="http://www.w3.org/2000/svg">
<path d="M0 5.5V1C0 0.716667 0.0960001 0.479 0.288 0.287C0.479333 0.0956668 0.716667 0 1 0H4.325C4.60833 0 4.846 0.0956668 5.038 0.287C5.22933 0.479 5.325 0.716667 5.325 1V5.5C5.325 5.78333 5.22933 6.02067 5.038 6.212C4.846 6.404 4.60833 6.5 4.325 6.5H1C0.716667 6.5 0.479333 6.404 0.288 6.212C0.0960001 6.02067 0 5.78333 0 5.5ZM7.325 6.5C7.04167 6.5 6.80433 6.404 6.613 6.212C6.421 6.02067 6.325 5.78333 6.325 5.5V1C6.325 0.716667 6.421 0.479 6.613 0.287C6.80433 0.0956668 7.04167 0 7.325 0H10.675C10.9583 0 11.196 0.0956668 11.388 0.287C11.5793 0.479 11.675 0.716667 11.675 1V5.5C11.675 5.78333 11.5793 6.02067 11.388 6.212C11.196 6.404 10.9583 6.5 10.675 6.5H7.325ZM13.675 6.5C13.3917 6.5 13.1543 6.404 12.963 6.212C12.771 6.02067 12.675 5.78333 12.675 5.5V1C12.675 0.716667 12.771 0.479 12.963 0.287C13.1543 0.0956668 13.3917 0 13.675 0H17C17.2833 0 17.5207 0.0956668 17.712 0.287C17.904 0.479 18 0.716667 18 1V5.5C18 5.78333 17.904 6.02067 17.712 6.212C17.5207 6.404 17.2833 6.5 17 6.5H13.675ZM4.325 14H1C0.716667 14 0.479333 13.904 0.288 13.712C0.0960001 13.5207 0 13.2833 0 13V8.5C0 8.21667 0.0960001 7.979 0.288 7.787C0.479333 7.59567 0.716667 7.5 1 7.5H4.325C4.60833 7.5 4.846 7.59567 5.038 7.787C5.22933 7.979 5.325 8.21667 5.325 8.5V13C5.325 13.2833 5.22933 13.5207 5.038 13.712C4.846 13.904 4.60833 14 4.325 14ZM7.325 14C7.04167 14 6.80433 13.904 6.613 13.712C6.421 13.5207 6.325 13.2833 6.325 13V8.5C6.325 8.21667 6.421 7.979 6.613 7.787C6.80433 7.59567 7.04167 7.5 7.325 7.5H10.675C10.9583 7.5 11.196 7.59567 11.388 7.787C11.5793 7.979 11.675 8.21667 11.675 8.5V13C11.675 13.2833 11.5793 13.5207 11.388 13.712C11.196 13.904 10.9583 14 10.675 14H7.325ZM13.675 14C13.3917 14 13.1543 13.904 12.963 13.712C12.771 13.5207 12.675 13.2833 12.675 13V8.5C12.675 8.21667 12.771 7.979 12.963 7.787C13.1543 7.59567 13.3917 7.5 13.675 7.5H17C17.2833 7.5 17.5207 7.59567 17.712 7.787C17.904 7.979 18 8.21667 18 8.5V13C18 13.2833 17.904 13.5207 17.712 13.712C17.5207 13.904 17.2833 14 17 14H13.675Z"/>
</svg>
