<svg width="24" height="24" viewBox="0 0 24 24" fill="none" xmlns="http://www.w3.org/2000/svg">
<path d="M14.0219 6.99998H15.0219C15.2871 7.00024 15.5413 7.10568 15.7288 7.29316C15.9162 7.48064 16.0217 7.73484 16.0219 7.99998V8.99998C16.0219 9.26519 16.1273 9.51955 16.3148 9.70708C16.5024 9.89462 16.7567 9.99998 17.0219 9.99998C17.2872 9.99998 17.5415 9.89462 17.7291 9.70708C17.9166 9.51955 18.0219 9.26519 18.0219 8.99998V7.99998C18.0212 7.20457 17.7048 6.44197 17.1424 5.87953C16.58 5.3171 15.8174 5.00077 15.0219 4.99998H14.0219C13.7567 4.99998 13.5024 5.10533 13.3148 5.29287C13.1273 5.48041 13.0219 5.73476 13.0219 5.99998C13.0219 6.26519 13.1273 6.51955 13.3148 6.70708C13.5024 6.89462 13.7567 6.99998 14.0219 6.99998ZM10.0219 16H9.02195C8.75681 15.9997 8.50261 15.8943 8.31514 15.7068C8.12766 15.5193 8.02221 15.2651 8.02195 15V14C8.02195 13.7348 7.91659 13.4804 7.72906 13.2929C7.54152 13.1053 7.28717 13 7.02195 13C6.75673 13 6.50238 13.1053 6.31484 13.2929C6.12731 13.4804 6.02195 13.7348 6.02195 14V15C6.02274 15.7954 6.33907 16.558 6.90151 17.1204C7.46394 17.6829 8.22654 17.9992 9.02195 18H10.0219C10.2872 18 10.5415 17.8946 10.7291 17.7071C10.9166 17.5195 11.0219 17.2652 11.0219 17C11.0219 16.7348 10.9166 16.4804 10.7291 16.2929C10.5415 16.1053 10.2872 16 10.0219 16ZM21.0219 15C21.2872 15 21.5415 14.8946 21.7291 14.7071C21.9166 14.5195 22.0219 14.2652 22.0219 14C22.0219 13.7348 21.9166 13.4804 21.7291 13.2929C21.5415 13.1053 21.2872 13 21.0219 13H18.0219V12.5C18.0219 12.2348 17.9166 11.9804 17.7291 11.7929C17.5415 11.6053 17.2872 11.5 17.0219 11.5C16.7567 11.5 16.5024 11.6053 16.3148 11.7929C16.1273 11.9804 16.0219 12.2348 16.0219 12.5V13H13.0219C12.7567 13 12.5024 13.1053 12.3148 13.2929C12.1273 13.4804 12.0219 13.7348 12.0219 14C12.0219 14.2652 12.1273 14.5195 12.3148 14.7071C12.5024 14.8946 12.7567 15 13.0219 15H18.2059C17.9799 15.9191 17.5625 16.7802 16.981 17.527C16.7426 17.2184 16.5318 16.8894 16.3509 16.544C16.2934 16.4232 16.2122 16.3152 16.1122 16.2263C16.0122 16.1375 15.8954 16.0696 15.7687 16.0267C15.6419 15.9839 15.5079 15.9668 15.3745 15.9767C15.2411 15.9865 15.111 16.0231 14.9919 16.0841C14.8729 16.1451 14.7673 16.2294 14.6814 16.332C14.5955 16.4346 14.5311 16.5533 14.4919 16.6813C14.4528 16.8092 14.4397 16.9437 14.4534 17.0767C14.4672 17.2098 14.5075 17.3388 14.5719 17.456C14.8415 17.9765 15.1632 18.4683 15.5319 18.924C14.8061 19.4509 13.9807 19.8248 13.1059 20.023C12.8468 20.0796 12.6208 20.2368 12.4776 20.4601C12.3345 20.6834 12.2858 20.9544 12.3424 21.2135C12.3991 21.4726 12.5563 21.6986 12.7796 21.8418C13.0028 21.985 13.2738 22.0336 13.5329 21.977C14.7877 21.6994 15.9646 21.1452 16.978 20.355C17.9999 21.1459 19.1848 21.6999 20.4469 21.977C20.7061 22.034 20.9772 21.9857 21.2008 21.8428C21.4243 21.6999 21.5819 21.4741 21.6389 21.215C21.696 20.9559 21.6477 20.6847 21.5048 20.4612C21.3619 20.2376 21.1361 20.08 20.8769 20.023C19.9968 19.8273 19.165 19.4566 18.4309 18.933C19.3558 17.7949 19.9793 16.4424 20.2439 15H21.0219ZM9.05195 11.243C9.11793 11.4986 9.28229 11.7177 9.5092 11.8526C9.73611 11.9875 10.0072 12.0272 10.2632 11.9631C10.5193 11.8989 10.7396 11.7361 10.8761 11.5102C11.0126 11.2842 11.0543 11.0135 10.9919 10.757L9.23495 3.72698C9.11165 3.23337 8.82686 2.79516 8.42588 2.48202C8.02489 2.16887 7.53072 1.99878 7.02195 1.99878C6.51318 1.99878 6.01901 2.16887 5.61802 2.48202C5.21704 2.79516 4.93225 3.23337 4.80895 3.72698L3.05195 10.757C2.98963 11.0135 3.03127 11.2842 3.16778 11.5102C3.3043 11.7361 3.52461 11.8989 3.78068 11.9631C4.03675 12.0272 4.30779 11.9875 4.5347 11.8526C4.76161 11.7177 4.92597 11.4986 4.99195 11.243L5.55195 8.99998H8.49195L9.05195 11.243ZM6.05195 6.99998L6.74995 4.21298C6.77092 4.15782 6.80817 4.11034 6.85675 4.07684C6.90532 4.04334 6.96294 4.0254 7.02195 4.0254C7.08096 4.0254 7.13857 4.04334 7.18715 4.07684C7.23573 4.11034 7.27298 4.15782 7.29395 4.21298L7.99095 6.99998H6.05195Z"/>
</svg>
