<svg width="130" height="30" viewBox="0 0 130 30" fill="none" xmlns="http://www.w3.org/2000/svg">
<path d="M25.05 24V6.5H31.325C32.7917 6.5 34.05 6.73333 35.1 7.2C36.15 7.66667 36.9583 8.34167 37.525 9.225C38.0917 10.0917 38.375 11.15 38.375 12.4C38.375 13.6167 38.0917 14.6667 37.525 15.55C36.9583 16.4333 36.15 17.1083 35.1 17.575C34.05 18.0417 32.7917 18.275 31.325 18.275H25.75L26.325 17.675V24H25.05ZM26.325 17.75L25.75 17.125H31.325C33.2083 17.125 34.6333 16.7167 35.6 15.9C36.5833 15.0667 37.075 13.9 37.075 12.4C37.075 10.8833 36.5833 9.71667 35.6 8.9C34.6333 8.06667 33.2083 7.65 31.325 7.65H25.75L26.325 7.025V17.75ZM50.3799 24V21.025L50.3299 20.575V15.675C50.3299 14.4583 49.9966 13.5333 49.3299 12.9C48.6799 12.2667 47.7215 11.95 46.4549 11.95C45.5549 11.95 44.7132 12.1083 43.9299 12.425C43.1632 12.725 42.5049 13.1167 41.9549 13.6L41.3299 12.7C41.9799 12.1167 42.7632 11.6667 43.6799 11.35C44.5965 11.0167 45.5549 10.85 46.5549 10.85C48.1715 10.85 49.4132 11.2583 50.2799 12.075C51.1465 12.8917 51.5799 14.1083 51.5799 15.725V24H50.3799ZM45.6799 24.1C44.7132 24.1 43.8715 23.95 43.1549 23.65C42.4549 23.3333 41.9132 22.8917 41.5299 22.325C41.1632 21.7583 40.9799 21.1083 40.9799 20.375C40.9799 19.7083 41.1299 19.1083 41.4299 18.575C41.7465 18.025 42.2632 17.5833 42.9799 17.25C43.6965 16.9 44.6549 16.725 45.8549 16.725H50.6549V17.7H45.8799C44.5299 17.7 43.5799 17.95 43.0299 18.45C42.4965 18.95 42.2299 19.575 42.2299 20.325C42.2299 21.1583 42.5465 21.825 43.1799 22.325C43.8132 22.825 44.7049 23.075 45.8549 23.075C46.9549 23.075 47.8799 22.825 48.6299 22.325C49.3965 21.825 49.9632 21.1 50.3299 20.15L50.6799 21C50.3299 21.95 49.7299 22.7083 48.8799 23.275C48.0466 23.825 46.9799 24.1 45.6799 24.1ZM60.0301 24.1C58.9467 24.1 57.9301 23.9417 56.9801 23.625C56.0467 23.3083 55.3217 22.9083 54.8051 22.425L55.3801 21.425C55.8801 21.8583 56.5467 22.2333 57.3801 22.55C58.2134 22.85 59.1134 23 60.0801 23C61.4467 23 62.4301 22.775 63.0301 22.325C63.6301 21.875 63.9301 21.2833 63.9301 20.55C63.9301 20.0167 63.7717 19.6 63.4551 19.3C63.1551 18.9833 62.7467 18.7417 62.2301 18.575C61.7134 18.4083 61.1467 18.275 60.5301 18.175C59.9134 18.0583 59.2967 17.9333 58.6801 17.8C58.0634 17.6667 57.4967 17.475 56.9801 17.225C56.4634 16.975 56.0467 16.6333 55.7301 16.2C55.4301 15.75 55.2801 15.1583 55.2801 14.425C55.2801 13.7583 55.4634 13.1583 55.8301 12.625C56.1967 12.0917 56.7467 11.6667 57.4801 11.35C58.2134 11.0167 59.1301 10.85 60.2301 10.85C61.0467 10.85 61.8634 10.9667 62.6801 11.2C63.5134 11.4333 64.1884 11.7417 64.7051 12.125L64.1301 13.125C63.5801 12.7083 62.9634 12.4083 62.2801 12.225C61.5967 12.0417 60.9051 11.95 60.2051 11.95C58.9384 11.95 58.0051 12.1833 57.4051 12.65C56.8217 13.1167 56.5301 13.7 56.5301 14.4C56.5301 14.95 56.6801 15.3917 56.9801 15.725C57.2967 16.0417 57.7134 16.2917 58.2301 16.475C58.7467 16.6417 59.3134 16.7833 59.9301 16.9C60.5467 17 61.1634 17.1167 61.7801 17.25C62.3967 17.3833 62.9634 17.575 63.4801 17.825C63.9967 18.0583 64.4051 18.3917 64.7051 18.825C65.0217 19.2417 65.1801 19.8083 65.1801 20.525C65.1801 21.2417 64.9801 21.8667 64.5801 22.4C64.1967 22.9333 63.6217 23.35 62.8551 23.65C62.0884 23.95 61.1467 24.1 60.0301 24.1ZM75.0436 10.85C76.1102 10.85 77.0352 11.0583 77.8186 11.475C78.6186 11.875 79.2352 12.4917 79.6686 13.325C80.1186 14.1417 80.3436 15.1583 80.3436 16.375V24H79.0936V16.475C79.0936 15.0083 78.7186 13.8917 77.9686 13.125C77.2352 12.3583 76.2019 11.975 74.8686 11.975C73.8519 11.975 72.9686 12.1833 72.2186 12.6C71.4686 13.0167 70.8936 13.6 70.4936 14.35C70.1102 15.1 69.9186 16 69.9186 17.05V24H68.6686V5.45H69.9186V14.575L69.6936 14.175C70.0936 13.1417 70.7519 12.3333 71.6686 11.75C72.5852 11.15 73.7102 10.85 75.0436 10.85ZM86.4398 20.4L86.4648 18.825L95.0898 10.95H96.6898L90.9648 16.325L90.2148 16.95L86.4398 20.4ZM85.4898 24V5.45H86.7398V24H85.4898ZM95.6898 24L89.9898 16.85L90.8398 15.925L97.2398 24H95.6898ZM104.774 24.1C103.524 24.1 102.408 23.8167 101.424 23.25C100.458 22.6833 99.6827 21.9 99.0994 20.9C98.5327 19.9 98.2494 18.7583 98.2494 17.475C98.2494 16.175 98.5327 15.0333 99.0994 14.05C99.6827 13.05 100.458 12.2667 101.424 11.7C102.408 11.1333 103.524 10.85 104.774 10.85C106.024 10.85 107.141 11.1333 108.124 11.7C109.108 12.2667 109.883 13.05 110.449 14.05C111.016 15.0333 111.299 16.175 111.299 17.475C111.299 18.7583 111.016 19.9 110.449 20.9C109.883 21.9 109.108 22.6833 108.124 23.25C107.141 23.8167 106.024 24.1 104.774 24.1ZM104.774 22.975C105.774 22.975 106.674 22.75 107.474 22.3C108.274 21.8333 108.899 21.1833 109.349 20.35C109.799 19.5167 110.024 18.5583 110.024 17.475C110.024 16.375 109.799 15.4167 109.349 14.6C108.899 13.7667 108.274 13.125 107.474 12.675C106.674 12.2083 105.774 11.975 104.774 11.975C103.774 11.975 102.874 12.2083 102.074 12.675C101.291 13.125 100.666 13.7667 100.199 14.6C99.7494 15.4167 99.5244 16.375 99.5244 17.475C99.5244 18.5583 99.7494 19.5167 100.199 20.35C100.666 21.1833 101.291 21.8333 102.074 22.3C102.874 22.75 103.774 22.975 104.774 22.975ZM118.111 24L112.236 10.95H113.561L119.061 23.3H118.461L124.011 10.95H125.286L119.386 24H118.111ZM127.015 24.1C126.731 24.1 126.481 24 126.265 23.8C126.065 23.5833 125.965 23.325 125.965 23.025C125.965 22.725 126.065 22.475 126.265 22.275C126.481 22.075 126.731 21.975 127.015 21.975C127.298 21.975 127.54 22.075 127.74 22.275C127.956 22.475 128.065 22.725 128.065 23.025C128.065 23.325 127.956 23.5833 127.74 23.8C127.54 24 127.298 24.1 127.015 24.1Z"/>
<path d="M3.05 24V6.5H4.325V24H3.05ZM9.87305 24.1C9.58971 24.1 9.33971 24 9.12305 23.8C8.92305 23.5833 8.82305 23.325 8.82305 23.025C8.82305 22.725 8.92305 22.475 9.12305 22.275C9.33971 22.075 9.58971 21.975 9.87305 21.975C10.1564 21.975 10.398 22.075 10.598 22.275C10.8147 22.475 10.923 22.725 10.923 23.025C10.923 23.325 10.8147 23.5833 10.598 23.8C10.398 24 10.1564 24.1 9.87305 24.1Z"/>
</svg>
