<svg fill="none" width="24" height="24" viewBox="0 0 48 48" xmlns="http://www.w3.org/2000/svg">
  <path fill="#004B91" fill-rule="evenodd" d="M.34 23.85a23.82 23.82 0 0046.02 8.57L25.94 24.5a13.05 13.05 0 016.52 17.06 12.5 12.5 0 00-24 0 13.06 13.06 0 0115.92-17.64L1.94 15.24a23.85 23.85 0 00-1.6 8.6z" clip-rule="evenodd"></path>
  <path fill="#fff" fill-rule="evenodd" d="M7.4 36.38c0 1.87.37 3.62 1.06 5.22a12.5 12.5 0 0124 0 13.17 13.17 0 00-6.52-17.1l-1.56-.61A13.1 13.1 0 007.4 36.39z" clip-rule="evenodd"></path>
  <path fill="#FFED00" fill-rule="evenodd" d="M38.86 17.71a11.42 11.42 0 01-21.9-4.57 11.44 11.44 0 0118.47-8.99 7.74 7.74 0 103.43 13.56zM25.94 24.5l20.42 7.92A23.82 23.82 0 001.94 15.2l22.44 8.69c.53.19 1.07.38 1.56.6z" clip-rule="evenodd"></path>
  <path fill="#E52E0E" fill-rule="evenodd" d="M17 13.18a11.48 11.48 0 0021.97 4.61 7.76 7.76 0 01-12.72-5.98 7.76 7.76 0 019.3-7.62 11.48 11.48 0 00-7.1-2.44A11.42 11.42 0 0017 13.18z" clip-rule="evenodd"></path>
</svg> 