<svg viewBox="0 0 178 50" id="logo" xmlns="http://www.w3.org/2000/svg">
  <g fill-rule="evenodd">
    <path d="M5.5 26.558V15.104h3.165v11.454h5.5V0h-5.5v10.285H5.501V0H0v26.558h5.5zm16.479-3.896h3.174l.536 3.896h4.737L26.624 4.427h-6.086l-3.802 22.13h4.768l.475-3.895zm1.702-14.52l.966 10.474h-2.193L23.62 8.142h.061zm15.178 18.416l1.947-16.902h.06l1.948 16.902h5.78l3.45-22.131h-4.738l-1.794 17.306h-.061L43.41 4.427h-5.151l-1.977 17.276h-.06L34.367 4.427H29.63l3.45 22.13h5.779zM54.251 4.427v22.13h4.584V15.636h.062l3.618 10.923h4.829L63.358 15.26l3.894-10.834h-4.83L58.897 14.9h-.061V4.427h-4.584zm19.931 0h-4.584v22.13h4.584V4.428zm13.262 15.599l-3.894-15.6h-5.808v22.132h4.338V11.094h.062l3.953 15.464h5.749V4.427h-4.339v15.599h-.061zm13.415-7.027v4.016h1.35v4.708c.033.341-.078.681-.307.941a1.943 1.943 0 01-2.024 0c-.23-.26-.34-.6-.307-.943V9.219a1.185 1.185 0 01.307-.927c.624-.36 1.4-.36 2.024 0 .231.253.342.59.306.929v1.349h4.584V9.189c0-1.858-.457-3.187-1.372-3.986-.915-.8-2.471-1.199-4.668-1.199a10.262 10.262 0 00-2.683.3 4.25 4.25 0 00-1.763.914 3.64 3.64 0 00-.995 1.611 7.71 7.71 0 00-.322 2.36v13.443a4.205 4.205 0 001.211 3.222 4.533 4.533 0 003.235 1.14c.762.043 1.52-.121 2.192-.475a5.275 5.275 0 001.518-1.601l.66 1.64h2.989v-13.56h-5.935zm22.92-8.143c.338-.018.674.053.975.205.262.18.44.453.497.761.117.573.166 1.156.147 1.74.02.594-.03 1.19-.147 1.774a1.176 1.176 0 01-.478.753c-.308.15-.651.218-.995.197h-1.398V4.855h1.398l.001.001zm1.288 21.702c2.085 0 3.602-.447 4.552-1.34.95-.893 1.426-2.25 1.426-4.072v-4.01a5.122 5.122 0 00-.828-3.12 3.825 3.825 0 00-2.63-1.375v-.072a4.275 4.275 0 002.575-1.852c.507-.916.76-1.945.736-2.985v-2.32c0-1.822-.475-3.18-1.426-4.072-.95-.894-2.474-1.34-4.571-1.34h-8.02v26.558h8.186zm-1.396-11.454c.415-.026.831.044 1.214.205.302.209.494.538.523.899.111.729.157 1.466.138 2.203.007.72-.049 1.438-.165 2.148-.033.37-.215.713-.506.953-.374.178-.79.255-1.204.224h-1.288v-6.632h1.288zm14.242 1.909h1.165c.982 0 1.472.37 1.472 1.109v7.552c.02.314.12.618.291.884h4.614a.921.921 0 01-.237-.42 3.32 3.32 0 01-.07-.621c-.01-.265-.015-.727-.014-1.387v-4.78c0-1.408-.22-2.455-.66-3.139a2.876 2.876 0 00-2.1-1.25v-.06a2.774 2.774 0 002.04-1.162 3.907 3.907 0 00.598-2.148V8.937c0-1.709-.447-2.887-1.34-3.537-.895-.649-2.385-.973-4.47-.971h-5.875v22.129h4.584v-9.545h.002zm1.165-8.541c.418-.059.835.11 1.089.44.223.579.312 1.198.261 1.815a3.848 3.848 0 01-.283 1.837 1.181 1.181 0 01-1.066.433h-1.165V8.472h1.165zm12.768-.18c.625-.36 1.4-.36 2.024 0 .232.253.344.59.308.927v12.5c.034.342-.077.683-.307.943-.618.38-1.404.38-2.023 0-.23-.26-.341-.6-.307-.943v-12.5a1.185 1.185 0 01.305-.927zm-4.53 16.026c.197.62.566 1.175 1.066 1.603a4.297 4.297 0 001.824.824c.872.177 1.761.26 2.652.247 2.095 0 3.603-.37 4.523-1.109.92-.739 1.38-2.107 1.38-4.105V9.19c0-1.987-.458-3.348-1.373-4.083-.914-.734-2.424-1.1-4.53-1.1a10.55 10.55 0 00-3.365.441 3.346 3.346 0 00-1.909 1.581 6.597 6.597 0 00-.628 3.162v12.586c-.022.86.1 1.718.36 2.54zm24.69-14.977a7.539 7.539 0 00-.36-2.48 3.932 3.932 0 00-1.058-1.655 4.204 4.204 0 00-1.786-.914 10.274 10.274 0 00-2.576-.285c-2.177 0-3.705.434-4.583 1.303-.88.87-1.319 2.319-1.319 4.348a7.367 7.367 0 00.95 3.978 11.477 11.477 0 002.83 2.93 23.633 23.633 0 012.659 2.247c.556.647.836 1.479.782 2.322a2.41 2.41 0 01-.314 1.401c-.24.3-.617.46-1.004.427-.39.032-.77-.135-1.005-.442a2.421 2.421 0 01-.313-1.386V19.59h-4.584v2.053a8.564 8.564 0 00.321 2.558c.185.627.54 1.194 1.028 1.64a4.072 4.072 0 001.801.892c.894.191 1.807.28 2.721.262.963.022 1.925-.081 2.86-.307a3.89 3.89 0 001.8-.996c.483-.52.819-1.155.974-1.841.22-.954.32-1.93.3-2.907a7.316 7.316 0 00-.967-3.986 9.77 9.77 0 00-2.284-2.525 55.636 55.636 0 01-2.644-2.165 3.24 3.24 0 01-1.326-2.397 2.486 2.486 0 01.306-1.424 1.17 1.17 0 011.012-.42c.879 0 1.318.615 1.318 1.842v1.228h4.461V9.34zm1.916 17.217H178v-4.016h-4.078v4.016zM2.75 47.466a2.532 2.532 0 001.844-.627 2.518 2.518 0 00.643-1.883 2.62 2.62 0 00-.36-1.4 1.584 1.584 0 00-1.055-.737v-.02c.349-.135.643-.378.84-.694.205-.338.309-.726.299-1.12a2.296 2.296 0 00-.656-1.804 2.734 2.734 0 00-1.88-.584H0v8.869h2.75zm.112-4.136a.956.956 0 01.867.432c.204.367.3.783.277 1.2.028.413-.085.822-.32 1.164a1.125 1.125 0 01-.935.402H1.237V43.33h1.625zm-1.625-3.783h1.188a1.26 1.26 0 01.981.356c.241.317.356.71.323 1.106.026.374-.078.744-.295 1.051a1.074 1.074 0 01-.843.38H1.237v-2.893zm8.995 7.834c.31-.121.586-.316.803-.567l-.35-.791a1.783 1.783 0 01-.613.467c-.3.122-.622.178-.945.165a1.048 1.048 0 01-.967-.545 2.79 2.79 0 01-.32-1.423v-.26h3.367v-.852a3.342 3.342 0 00-.573-2.068 1.98 1.98 0 00-1.68-.753 2.06 2.06 0 00-1.698.829 3.361 3.361 0 00-.653 2.144v.962a3.2 3.2 0 00.659 2.099c.433.532 1.096.829 1.785.8.405.01.808-.061 1.185-.207zm-.498-5.239c.185.355.273.752.255 1.152v.25H7.841c0-.462.11-.917.32-1.329a.882.882 0 01.794-.511.842.842 0 01.779.438zm4.528-.688a2.641 2.641 0 00-.727.487l-.012-.012c.063-.492.25-.96.545-1.361.239-.306.58-.517.963-.594a3.3 3.3 0 001.458-.549A1.75 1.75 0 0016.957 38h-.995a.742.742 0 01-.263.624c-.251.17-.535.286-.834.344a2.653 2.653 0 00-1.763 1.455 7.013 7.013 0 00-.649 3.305v.682c-.041.82.185 1.632.646 2.315.44.549 1.109.87 1.816.871a2.336 2.336 0 001.821-.862c.46-.675.688-1.48.646-2.293v-.165a3.619 3.619 0 00-.597-2.174 1.955 1.955 0 00-1.68-.823 2.033 2.033 0 00-.843.175zm1.587 1.337c.22.463.323.972.302 1.483v.165c.022.55-.081 1.099-.302 1.605-.16.37-.527.61-.934.612-.407 0-.775-.24-.936-.609a3.713 3.713 0 01-.295-1.608v-.165c-.02-.51.08-1.016.295-1.48a.979.979 0 01.93-.572c.4-.014.77.21.94.569zm5.325.375h-2.626v.935h2.626v-.935zm2.777 2.138l-.018-.007v-4.422h-1.231v6.591h1.23l2.031-4.422.019.004v4.418h1.236v-6.591h-1.236l-2.031 4.429zm9.528-4.429h-1.237v2.839h-2.037v-2.839h-1.231v6.591h1.23v-2.814h2.038v2.814h1.236v-6.591zm5.977 0h-4.684v.944h1.711v5.647h1.237v-5.647h1.733v-.944h.003zm4.201 6.506c.31-.121.587-.316.803-.567l-.35-.791a1.778 1.778 0 01-.613.467c-.3.122-.622.178-.945.165a1.048 1.048 0 01-.966-.545 2.783 2.783 0 01-.32-1.423v-.26h3.37v-.852a3.344 3.344 0 00-.573-2.068c-.4-.51-1.03-.793-1.68-.753a2.06 2.06 0 00-1.699.829 3.362 3.362 0 00-.652 2.144v.962a3.2 3.2 0 00.658 2.099c.434.532 1.096.829 1.786.8a3.1 3.1 0 001.181-.207zm-.498-5.239c.185.355.273.752.255 1.152v.25h-2.148c0-.462.11-.917.32-1.329a.882.882 0 01.794-.511.842.842 0 01.779.438zm6.448-1.267h-3.539v6.591h1.23v-5.635h2.309v-.956zm5.866 3.034a4.279 4.279 0 00-.538-2.306 1.727 1.727 0 00-1.548-.85 1.581 1.581 0 00-.837.213 1.798 1.798 0 00-.597.616l-.013-.006-.067-.701h-1.108V50h1.231v-3.113l.018-.006c.147.22.345.4.578.527.247.125.522.187.8.18a1.768 1.768 0 001.542-.77 3.61 3.61 0 00.538-2.1v-.81h.001zm-1.23.81c.022.487-.076.972-.287 1.413a.956.956 0 01-.902.524c-.232.01-.461-.06-.649-.195a1.333 1.333 0 01-.409-.566V42.55c.087-.234.228-.445.412-.615a.932.932 0 01.634-.22c.4-.007.762.233.908.6.215.504.315 1.048.292 1.594v.81zm7.182 2.747a5.346 5.346 0 01-.191-1.437V42.97a2.212 2.212 0 00-.578-1.654 2.09 2.09 0 00-1.529-.563 2.224 2.224 0 00-1.612.588c-.393.36-.614.868-.61 1.397l1.237.007a1.187 1.187 0 01.24-.77.81.81 0 01.665-.296.82.82 0 01.705.332c.179.283.264.614.243.947v.676h-.855a2.576 2.576 0 00-1.745.53c-.417.383-.64.93-.606 1.492-.03.51.128 1.013.446 1.416.322.354.79.543 1.27.515.307.002.607-.091.856-.268.259-.184.477-.418.64-.688l.013.005c.012.135.033.268.061.4.028.136.064.279.105.429h1.245zM58.22 46.37a1.186 1.186 0 01-.197-.72 1.39 1.39 0 01.283-.888.98.98 0 01.819-.36H60v1.377a1.482 1.482 0 01-.48.618 1.175 1.175 0 01-.726.24.667.667 0 01-.575-.267h.002zm8.851-5.495h-4.686v.944h1.71v5.647h1.237v-5.647h1.733v-.944h.006zm.788 3.722c-.038.774.19 1.539.646 2.168a2.422 2.422 0 001.82.823c.698 0 1.362-.299 1.82-.82a3.419 3.419 0 00.644-2.171v-.84a3.436 3.436 0 00-.647-2.172 2.398 2.398 0 00-1.818-.832c-.7 0-1.365.304-1.819.832a3.436 3.436 0 00-.646 2.171v.84zm1.237-.84a3.25 3.25 0 01.292-1.484.978.978 0 01.933-.572c.4-.013.769.212.935.572.22.463.323.972.302 1.483v.84a3.21 3.21 0 01-.299 1.49 1.048 1.048 0 01-.933.57c-.394 0-.756-.218-.935-.566a3.236 3.236 0 01-.295-1.493v-.84zm9.897.152a4.272 4.272 0 00-.538-2.306 1.725 1.725 0 00-1.548-.85 1.584 1.584 0 00-.837.213c-.246.155-.45.366-.597.616l-.012-.006-.068-.701h-1.108V50h1.229v-3.113l.018-.006c.147.22.345.4.578.527.247.125.522.187.8.18a1.767 1.767 0 001.541-.77c.391-.63.58-1.362.54-2.1v-.81h.002zm-1.23.81a2.96 2.96 0 01-.287 1.413.956.956 0 01-.902.524c-.232.01-.46-.06-.649-.195a1.333 1.333 0 01-.409-.566V42.55a1.58 1.58 0 01.413-.615.931.931 0 01.633-.22c.4-.007.762.233.908.6.215.504.315 1.048.292 1.594v.81z"></path>
  </g>
</svg>